<?xml version="1.0" encoding="utf-8"?><svg xmlns="http://www.w3.org/2000/svg" xmlns:xlink="http://www.w3.org/1999/xlink" width="1504" height="641" preserveAspectRatio="xMidYMid" viewBox="0 0 1366 641" style="z-index:1;margin-right:-2px;display:block;background-color:rgb(0, 124, 197);animation-play-state:paused" ><g transform="translate(683,320.5) scale(1,1) translate(-683,-320.5)" style="transform:matrix(1, 0, 0, 1, 0, 0);animation-play-state:paused" ><defs style="animation-play-state:paused" ><filter id="blur-5j4xvogg9ss-1" x="-1" y="-1" width="3" height="3" style="animation-play-state:paused" ><feGaussianBlur stdDeviation="3" style="animation-play-state:paused" ></feGaussianBlur></filter>
<filter id="blur-5j4xvogg9ss-2" x="-1" y="-1" width="3" height="3" style="animation-play-state:paused" ><feGaussianBlur stdDeviation="1.5" style="animation-play-state:paused" ></feGaussianBlur></filter>
<filter id="blur-5j4xvogg9ss-3" x="-1" y="-1" width="3" height="3" style="animation-play-state:paused" ><feGaussianBlur stdDeviation="1" style="animation-play-state:paused" ></feGaussianBlur></filter></defs>
<circle cx="801.4343247052768" cy="0" transform="matrix(1,0,0,1,0,158.26235961914062)" r="13.216615069764725" fill="#aabbcc" opacity="0.7200000000000001" style="transform:matrix(1, 0, 0, 1, 0, 158.262);opacity:0.72;animation-play-state:paused" ></circle>
<circle cx="937.5683900895995" cy="0" transform="matrix(1,0,0,1,0,185.4515380859375)" r="12.644730714517527" fill="#bbddff" opacity="0.7200000000000001" style="transform:matrix(1, 0, 0, 1, 0, 185.452);opacity:0.72;animation-play-state:paused" ></circle>
<circle cx="233.82691843228753" cy="0" transform="matrix(1,0,0,1,0,623.5062866210938)" r="8.337877402560682" fill="#bbddff" opacity="0.63" style="transform:matrix(1, 0, 0, 1, 0, 623.506);opacity:0.63;animation-play-state:paused" ></circle>
<circle cx="960.4514910043806" cy="0" transform="matrix(1,0,0,1,0,-5.74603271484375)" r="10.1381728984706" fill="#aabbcc" opacity="0.63" style="transform:matrix(1, 0, 0, 1, 0, -5.74603);opacity:0.63;animation-play-state:paused" ></circle>
<circle cx="403.01013823550284" cy="0" transform="matrix(1,0,0,1,0,16.1468505859375)" r="15.10303041778726" fill="#bbddff" opacity="0.7200000000000001" style="transform:matrix(1, 0, 0, 1, 0, 16.1469);opacity:0.72;animation-play-state:paused" ></circle>
<circle cx="62.24561898833352" cy="0" transform="matrix(1,0,0,1,0,547.338134765625)" r="9.606191266352603" fill="#aabbcc" opacity="0.63" style="transform:matrix(1, 0, 0, 1, 0, 547.338);opacity:0.63;animation-play-state:paused" ></circle>
<circle cx="68.39966860528219" cy="0" transform="matrix(1,0,0,1,0,555.2457885742188)" r="12.328133910682965" fill="#ddeeff" opacity="0.7200000000000001" style="transform:matrix(1, 0, 0, 1, 0, 555.246);opacity:0.72;animation-play-state:paused" ></circle>
<circle cx="574.473260086041" cy="0" transform="matrix(1,0,0,1,0,46.64117431640625)" r="7.047127095954009" fill="#ddeeff" opacity="0.36000000000000004" style="transform:matrix(1, 0, 0, 1, 0, 46.6412);opacity:0.36;animation-play-state:paused" ></circle>
<circle cx="408.8854925778797" cy="0" transform="matrix(1,0,0,1,0,273.48333740234375)" r="14.166954714434956" fill="#aabbcc" opacity="0.7200000000000001" style="transform:matrix(1, 0, 0, 1, 0, 273.483);opacity:0.72;animation-play-state:paused" ></circle>
<circle cx="435.19413506280324" cy="0" transform="matrix(1,0,0,1,0,509.30718994140625)" r="5.82120906645229" fill="#ddeeff" opacity="0.36000000000000004" style="transform:matrix(1, 0, 0, 1, 0, 509.307);opacity:0.36;animation-play-state:paused" ></circle>
<circle cx="1151.3867499274222" cy="0" transform="matrix(1,0,0,1,0,332.3990783691406)" r="7.495789195018515" fill="#ddeeff" opacity="0.36000000000000004" style="transform:matrix(1, 0, 0, 1, 0, 332.399);opacity:0.36;animation-play-state:paused" ></circle>
<circle cx="406.38439480426024" cy="0" transform="matrix(1,0,0,1,0,519.471923828125)" r="15.0358063395332" fill="#aabbcc" opacity="0.7200000000000001" style="transform:matrix(1, 0, 0, 1, 0, 519.472);opacity:0.72;animation-play-state:paused" ></circle>
<circle cx="1330.7553846849353" cy="0" transform="matrix(1,0,0,1,0,267.7912902832031)" r="6.130589613596211" fill="#ddeeff" opacity="0.36000000000000004" style="transform:matrix(1, 0, 0, 1, 0, 267.791);opacity:0.36;animation-play-state:paused" ></circle>
<circle cx="1032.4842731559725" cy="0" transform="matrix(1,0,0,1,0,293.8158264160156)" r="9.461277489626031" fill="#bbddff" opacity="0.63" style="transform:matrix(1, 0, 0, 1, 0, 293.816);opacity:0.63;animation-play-state:paused" ></circle>
<circle cx="919.1748537612593" cy="0" transform="matrix(1,0,0,1,0,591.8844604492188)" r="8.61068921305521" fill="#bbddff" opacity="0.63" style="transform:matrix(1, 0, 0, 1, 0, 591.884);opacity:0.63;animation-play-state:paused" ></circle>
<circle cx="624.9083335614738" cy="0" transform="matrix(1,0,0,1,0,93.19842529296875)" r="8.964237746070001" fill="#ddeeff" opacity="0.63" style="transform:matrix(1, 0, 0, 1, 0, 93.1984);opacity:0.63;animation-play-state:paused" ></circle>
<circle cx="717.80295829078" cy="0" transform="matrix(1,0,0,1,0,67.85565185546875)" r="15.46033841667049" fill="#ddeeff" opacity="0.7200000000000001" style="transform:matrix(1, 0, 0, 1, 0, 67.8557);opacity:0.72;animation-play-state:paused" ></circle>
<circle cx="1220.2713110226832" cy="0" transform="matrix(1,0,0,1,0,298.84014892578125)" r="8.036956027193433" fill="#aabbcc" opacity="0.63" style="transform:matrix(1, 0, 0, 1, 0, 298.84);opacity:0.63;animation-play-state:paused" ></circle>
<circle cx="34.084613779040495" cy="0" transform="matrix(1,0,0,1,0,147.52392578125)" r="12.791008251733961" fill="#aabbcc" opacity="0.7200000000000001" style="transform:matrix(1, 0, 0, 1, 0, 147.524);opacity:0.72;animation-play-state:paused" ></circle>
<circle cx="134.7949030011066" cy="0" transform="matrix(1,0,0,1,0,19.05462646484375)" r="15.611172826976247" fill="#bbddff" opacity="0.7200000000000001" style="transform:matrix(1, 0, 0, 1, 0, 19.0546);opacity:0.72;animation-play-state:paused" ></circle>
<circle cx="1121.611154036983" cy="0" transform="matrix(1,0,0,1,0,199.12307739257812)" r="8.07482638713991" fill="#bbddff" opacity="0.63" style="transform:matrix(1, 0, 0, 1, 0, 199.123);opacity:0.63;animation-play-state:paused" ></circle>
<circle cx="1017.5861339576771" cy="0" transform="matrix(1,0,0,1,0,472.04241943359375)" r="4.806169785533819" fill="#bbddff" opacity="0.36000000000000004" style="transform:matrix(1, 0, 0, 1, 0, 472.042);opacity:0.36;animation-play-state:paused" ></circle>
<circle cx="228.1101196554359" cy="0" transform="matrix(1,0,0,1,0,362.58642578125)" r="6.747365261091847" fill="#aabbcc" opacity="0.36000000000000004" style="transform:matrix(1, 0, 0, 1, 0, 362.586);opacity:0.36;animation-play-state:paused" ></circle>
<circle cx="721.6076100398261" cy="0" transform="matrix(1,0,0,1,0,129.228271484375)" r="13.255715877575884" fill="#bbddff" opacity="0.7200000000000001" style="transform:matrix(1, 0, 0, 1, 0, 129.228);opacity:0.72;animation-play-state:paused" ></circle>
<circle cx="881.7254224615294" cy="0" transform="matrix(1,0,0,1,0,460.3998718261719)" r="5.706531928352197" fill="#bbddff" opacity="0.36000000000000004" style="transform:matrix(1, 0, 0, 1, 0, 460.4);opacity:0.36;animation-play-state:paused" ></circle>
<circle cx="676.1433455267345" cy="0" transform="matrix(1,0,0,1,0,356.5377502441406)" r="14.180424263073347" fill="#ddeeff" opacity="0.7200000000000001" style="transform:matrix(1, 0, 0, 1, 0, 356.538);opacity:0.72;animation-play-state:paused" ></circle>
<circle cx="268.0734337755143" cy="0" transform="matrix(1,0,0,1,0,207.72064208984375)" r="13.627799947844768" fill="#bbddff" opacity="0.7200000000000001" style="transform:matrix(1, 0, 0, 1, 0, 207.721);opacity:0.72;animation-play-state:paused" ></circle>
<circle cx="571.227547487461" cy="0" transform="matrix(1,0,0,1,0,293.1611633300781)" r="5.735016855376325" fill="#bbddff" opacity="0.36000000000000004" style="transform:matrix(1, 0, 0, 1, 0, 293.161);opacity:0.36;animation-play-state:paused" ></circle>
<circle cx="1135.1980229021065" cy="0" transform="matrix(1,0,0,1,0,572.307373046875)" r="13.929608991726056" fill="#aabbcc" opacity="0.7200000000000001" style="transform:matrix(1, 0, 0, 1, 0, 572.307);opacity:0.72;animation-play-state:paused" ></circle>
<circle cx="310.1451829035998" cy="0" transform="matrix(1,0,0,1,0,205.59280395507812)" r="4.880050280443128" fill="#aabbcc" opacity="0.36000000000000004" style="transform:matrix(1, 0, 0, 1, 0, 205.593);opacity:0.36;animation-play-state:paused" ></circle>
<circle cx="747.7443293196809" cy="0" transform="matrix(1,0,0,1,0,370.37298583984375)" r="7.919313531381965" fill="#bbddff" opacity="0.36000000000000004" style="transform:matrix(1, 0, 0, 1, 0, 370.373);opacity:0.36;animation-play-state:paused" ></circle>
<circle cx="304.87013065483006" cy="0" transform="matrix(1,0,0,1,0,115.80767822265625)" r="5.2084586025684265" fill="#aabbcc" opacity="0.36000000000000004" style="transform:matrix(1, 0, 0, 1, 0, 115.808);opacity:0.36;animation-play-state:paused" ></circle>
<circle cx="138.27924156814845" cy="0" transform="matrix(1,0,0,1,0,566.0838012695312)" r="6.596512591305276" fill="#bbddff" opacity="0.36000000000000004" style="transform:matrix(1, 0, 0, 1, 0, 566.084);opacity:0.36;animation-play-state:paused" ></circle>
<circle cx="1018.6121725649093" cy="0" transform="matrix(1,0,0,1,0,190.14373779296875)" r="12.702877105608135" fill="#bbddff" opacity="0.7200000000000001" style="transform:matrix(1, 0, 0, 1, 0, 190.144);opacity:0.72;animation-play-state:paused" ></circle>
<circle cx="420.2765790567783" cy="0" transform="matrix(1,0,0,1,0,91.33880615234375)" r="8.290501229253014" fill="#aabbcc" opacity="0.63" style="transform:matrix(1, 0, 0, 1, 0, 91.3388);opacity:0.63;animation-play-state:paused" ></circle>
<circle cx="432.5339842949118" cy="0" transform="matrix(1,0,0,1,0,554.2002563476562)" r="11.032678106970474" fill="#ddeeff" opacity="0.63" style="transform:matrix(1, 0, 0, 1, 0, 554.2);opacity:0.63;animation-play-state:paused" ></circle>
<circle cx="1028.2416294810826" cy="0" transform="matrix(1,0,0,1,0,193.47381591796875)" r="6.877383331517089" fill="#aabbcc" opacity="0.36000000000000004" style="transform:matrix(1, 0, 0, 1, 0, 193.474);opacity:0.36;animation-play-state:paused" ></circle>
<circle cx="813.6439530355901" cy="0" transform="matrix(1,0,0,1,0,314.172607421875)" r="15.424681527805923" fill="#ddeeff" opacity="0.7200000000000001" style="transform:matrix(1, 0, 0, 1, 0, 314.173);opacity:0.72;animation-play-state:paused" ></circle>
<circle cx="844.8052301113945" cy="0" transform="matrix(1,0,0,1,0,577.6304931640625)" r="12.091602996968934" fill="#ddeeff" opacity="0.7200000000000001" style="transform:matrix(1, 0, 0, 1, 0, 577.63);opacity:0.72;animation-play-state:paused" ></circle>
<circle cx="1264.863255457851" cy="0" transform="matrix(1,0,0,1,0,138.917724609375)" r="12.117600523858247" fill="#bbddff" opacity="0.7200000000000001" style="transform:matrix(1, 0, 0, 1, 0, 138.918);opacity:0.72;animation-play-state:paused" ></circle>
<circle cx="766.2789275711843" cy="0" transform="matrix(1,0,0,1,0,3.194091796875)" r="14.293265776779245" fill="#bbddff" opacity="0.7200000000000001" style="transform:matrix(1, 0, 0, 1, 0, 3.19409);opacity:0.72;animation-play-state:paused" ></circle>
<circle cx="870.0155087624506" cy="0" transform="matrix(1,0,0,1,0,144.90328979492188)" r="11.904041365464682" fill="#ddeeff" opacity="0.63" style="transform:matrix(1, 0, 0, 1, 0, 144.903);opacity:0.63;animation-play-state:paused" ></circle>
<circle cx="445.88032321562486" cy="0" transform="matrix(1,0,0,1,0,299.602294921875)" r="14.53916082271217" fill="#aabbcc" opacity="0.7200000000000001" style="transform:matrix(1, 0, 0, 1, 0, 299.602);opacity:0.72;animation-play-state:paused" ></circle>
<circle cx="847.6488438176302" cy="0" transform="matrix(1,0,0,1,0,82.384521484375)" r="5.885083195398194" fill="#ddeeff" opacity="0.36000000000000004" style="transform:matrix(1, 0, 0, 1, 0, 82.3845);opacity:0.36;animation-play-state:paused" ></circle>
<circle cx="610.3941112968603" cy="0" transform="matrix(1,0,0,1,0,513.3021240234375)" r="4.433329643519526" fill="#aabbcc" opacity="0.36000000000000004" style="transform:matrix(1, 0, 0, 1, 0, 513.302);opacity:0.36;animation-play-state:paused" ></circle>
<circle cx="443.3747796457967" cy="0" transform="matrix(1,0,0,1,0,36.6402587890625)" r="6.281760461489187" fill="#ddeeff" opacity="0.36000000000000004" style="transform:matrix(1, 0, 0, 1, 0, 36.6403);opacity:0.36;animation-play-state:paused" ></circle>
<circle cx="952.4531894906183" cy="0" transform="matrix(1,0,0,1,0,53.6251220703125)" r="13.369227433145683" fill="#aabbcc" opacity="0.7200000000000001" style="transform:matrix(1, 0, 0, 1, 0, 53.6251);opacity:0.72;animation-play-state:paused" ></circle>
<circle cx="1291.3773985878936" cy="0" transform="matrix(1,0,0,1,0,212.7041015625)" r="10.322833988297301" fill="#aabbcc" opacity="0.63" style="transform:matrix(1, 0, 0, 1, 0, 212.704);opacity:0.63;animation-play-state:paused" ></circle>
<circle cx="1362.5019542330938" cy="0" transform="matrix(1,0,0,1,0,7.33990478515625)" r="5.4983208748249774" fill="#bbddff" opacity="0.36000000000000004" style="transform:matrix(1, 0, 0, 1, 0, 7.3399);opacity:0.36;animation-play-state:paused" ></circle>
<circle cx="1169.8861634842274" cy="0" transform="matrix(1,0,0,1,0,121.173828125)" r="15.155280944200944" fill="#bbddff" opacity="0.7200000000000001" style="transform:matrix(1, 0, 0, 1, 0, 121.174);opacity:0.72;animation-play-state:paused" ></circle>
<circle cx="631.8605000010998" cy="0" transform="matrix(1,0,0,1,0,281.1094970703125)" r="10.338748720960288" fill="#aabbcc" opacity="0.63" style="transform:matrix(1, 0, 0, 1, 0, 281.109);opacity:0.63;animation-play-state:paused" ></circle>
<circle cx="301.63585220845147" cy="0" transform="matrix(1,0,0,1,0,69.2318115234375)" r="15.023141988775714" fill="#aabbcc" opacity="0.7200000000000001" style="transform:matrix(1, 0, 0, 1, 0, 69.2318);opacity:0.72;animation-play-state:paused" ></circle>
<circle cx="546.0026411646164" cy="0" transform="matrix(1,0,0,1,0,622.7510375976562)" r="7.1349523789512475" fill="#bbddff" opacity="0.36000000000000004" style="transform:matrix(1, 0, 0, 1, 0, 622.751);opacity:0.36;animation-play-state:paused" ></circle>
<circle cx="944.0761286863175" cy="0" transform="matrix(1,0,0,1,0,46.4129638671875)" r="4.9390863750599205" fill="#bbddff" opacity="0.36000000000000004" style="transform:matrix(1, 0, 0, 1, 0, 46.413);opacity:0.36;animation-play-state:paused" ></circle>
<circle cx="18.985045009592724" cy="0" transform="matrix(1,0,0,1,0,633.3721923828125)" r="9.553674227019712" fill="#aabbcc" opacity="0.63" style="transform:matrix(1, 0, 0, 1, 0, 633.372);opacity:0.63;animation-play-state:paused" ></circle>
<circle cx="1267.6527196615177" cy="0" transform="matrix(1,0,0,1,0,42.80096435546875)" r="12.607019513412373" fill="#aabbcc" opacity="0.7200000000000001" style="transform:matrix(1, 0, 0, 1, 0, 42.801);opacity:0.72;animation-play-state:paused" ></circle>
<circle cx="669.9167331598441" cy="0" transform="matrix(1,0,0,1,0,473.8536071777344)" r="4.793396051661454" fill="#ddeeff" opacity="0.36000000000000004" style="transform:matrix(1, 0, 0, 1, 0, 473.854);opacity:0.36;animation-play-state:paused" ></circle>
<circle cx="774.9225896435443" cy="0" transform="matrix(1,0,0,1,0,510.04852294921875)" r="12.944176430885872" fill="#ddeeff" opacity="0.7200000000000001" style="transform:matrix(1, 0, 0, 1, 0, 510.049);opacity:0.72;animation-play-state:paused" ></circle>
<circle cx="973.2158655709829" cy="0" transform="matrix(1,0,0,1,0,197.35113525390625)" r="7.579827528862866" fill="#aabbcc" opacity="0.36000000000000004" style="transform:matrix(1, 0, 0, 1, 0, 197.351);opacity:0.36;animation-play-state:paused" ></circle>
<circle cx="1056.710097610317" cy="0" transform="matrix(1,0,0,1,0,595.0318603515625)" r="8.787275038732094" fill="#ddeeff" opacity="0.63" style="transform:matrix(1, 0, 0, 1, 0, 595.032);opacity:0.63;animation-play-state:paused" ></circle>
<circle cx="626.7684608714638" cy="0" transform="matrix(1,0,0,1,0,222.196533203125)" r="6.429261191721418" fill="#bbddff" opacity="0.36000000000000004" style="transform:matrix(1, 0, 0, 1, 0, 222.197);opacity:0.36;animation-play-state:paused" ></circle>
<circle cx="1245.1323624431707" cy="0" transform="matrix(1,0,0,1,0,467.18560791015625)" r="8.788133475138082" fill="#bbddff" opacity="0.63" style="transform:matrix(1, 0, 0, 1, 0, 467.186);opacity:0.63;animation-play-state:paused" ></circle>
<circle cx="1114.9689752780546" cy="0" transform="matrix(1,0,0,1,0,464.177978515625)" r="14.48071096129867" fill="#aabbcc" opacity="0.7200000000000001" style="transform:matrix(1, 0, 0, 1, 0, 464.178);opacity:0.72;animation-play-state:paused" ></circle>
<circle cx="254.3388720030148" cy="0" transform="matrix(1,0,0,1,0,596.2025756835938)" r="7.6372822530561475" fill="#aabbcc" opacity="0.36000000000000004" style="transform:matrix(1, 0, 0, 1, 0, 596.203);opacity:0.36;animation-play-state:paused" ></circle>
<circle cx="515.111130225303" cy="0" transform="matrix(1,0,0,1,0,113.02606201171875)" r="12.205814341822318" fill="#ddeeff" opacity="0.7200000000000001" style="transform:matrix(1, 0, 0, 1, 0, 113.026);opacity:0.72;animation-play-state:paused" ></circle>
<circle cx="49.58466438100179" cy="0" transform="matrix(1,0,0,1,0,118.64715576171875)" r="5.965742742470903" fill="#bbddff" opacity="0.36000000000000004" style="transform:matrix(1, 0, 0, 1, 0, 118.647);opacity:0.36;animation-play-state:paused" ></circle>
<circle cx="1211.6637708186024" cy="0" transform="matrix(1,0,0,1,0,237.15249633789062)" r="9.346367244589096" fill="#aabbcc" opacity="0.63" style="transform:matrix(1, 0, 0, 1, 0, 237.152);opacity:0.63;animation-play-state:paused" ></circle>
<circle cx="1000.2645095922818" cy="0" transform="matrix(1,0,0,1,0,610.9379272460938)" r="9.741012261765771" fill="#bbddff" opacity="0.63" style="transform:matrix(1, 0, 0, 1, 0, 610.938);opacity:0.63;animation-play-state:paused" ></circle>
<circle cx="1077.7001828730206" cy="0" transform="matrix(1,0,0,1,0,356.0307922363281)" r="7.868010744826412" fill="#bbddff" opacity="0.36000000000000004" style="transform:matrix(1, 0, 0, 1, 0, 356.031);opacity:0.36;animation-play-state:paused" ></circle>
<circle cx="568.8859271042476" cy="0" transform="matrix(1,0,0,1,0,344.6085205078125)" r="5.5287485426442835" fill="#ddeeff" opacity="0.36000000000000004" style="transform:matrix(1, 0, 0, 1, 0, 344.609);opacity:0.36;animation-play-state:paused" ></circle>
<circle cx="1151.2679899261668" cy="0" transform="matrix(1,0,0,1,0,554.509765625)" r="5.952298514111157" fill="#ddeeff" opacity="0.36000000000000004" style="transform:matrix(1, 0, 0, 1, 0, 554.51);opacity:0.36;animation-play-state:paused" ></circle>
<circle cx="295.90464136828246" cy="0" transform="matrix(1,0,0,1,0,291.052490234375)" r="10.37772902507163" fill="#bbddff" opacity="0.63" style="transform:matrix(1, 0, 0, 1, 0, 291.052);opacity:0.63;animation-play-state:paused" ></circle>
<circle cx="987.9639697190169" cy="0" transform="matrix(1,0,0,1,0,16.6611328125)" r="10.151787418732379" fill="#ddeeff" opacity="0.63" style="transform:matrix(1, 0, 0, 1, 0, 16.6611);opacity:0.63;animation-play-state:paused" ></circle>
<circle cx="967.9697198070473" cy="0" transform="matrix(1,0,0,1,0,389.77716064453125)" r="13.740589343184247" fill="#bbddff" opacity="0.7200000000000001" style="transform:matrix(1, 0, 0, 1, 0, 389.777);opacity:0.72;animation-play-state:paused" ></circle>
<circle cx="620.4398132834283" cy="0" transform="matrix(1,0,0,1,0,382.4336242675781)" r="14.683714586878006" fill="#ddeeff" opacity="0.7200000000000001" style="transform:matrix(1, 0, 0, 1, 0, 382.434);opacity:0.72;animation-play-state:paused" ></circle>
<circle cx="920.6019416984892" cy="0" transform="matrix(1,0,0,1,0,422.5383605957031)" r="7.514921333251905" fill="#ddeeff" opacity="0.36000000000000004" style="transform:matrix(1, 0, 0, 1, 0, 422.538);opacity:0.36;animation-play-state:paused" ></circle>
<circle cx="172.3734151250124" cy="0" transform="matrix(1,0,0,1,0,-2.3128662109375)" r="13.94570424051556" fill="#ddeeff" opacity="0.7200000000000001" style="transform:matrix(1, 0, 0, 1, 0, -2.31287);opacity:0.72;animation-play-state:paused" ></circle>
<circle cx="616.7063701622841" cy="0" transform="matrix(1,0,0,1,0,625.0662841796875)" r="15.207406255564337" fill="#aabbcc" opacity="0.7200000000000001" style="transform:matrix(1, 0, 0, 1, 0, 625.066);opacity:0.72;animation-play-state:paused" ></circle>
<circle cx="1087.5971684868887" cy="0" transform="matrix(1,0,0,1,0,423.71575927734375)" r="5.503669071323281" fill="#ddeeff" opacity="0.36000000000000004" style="transform:matrix(1, 0, 0, 1, 0, 423.716);opacity:0.36;animation-play-state:paused" ></circle>
<circle cx="66.68870185751585" cy="0" transform="matrix(1,0,0,1,0,553.108154296875)" r="15.823580841439464" fill="#bbddff" opacity="0.7200000000000001" style="transform:matrix(1, 0, 0, 1, 0, 553.108);opacity:0.72;animation-play-state:paused" ></circle>
<circle cx="1357.665052481631" cy="0" transform="matrix(1,0,0,1,0,306.9879150390625)" r="9.794579591662558" fill="#aabbcc" opacity="0.63" style="transform:matrix(1, 0, 0, 1, 0, 306.988);opacity:0.63;animation-play-state:paused" ></circle>
<circle cx="1016.4493904503081" cy="0" transform="matrix(1,0,0,1,0,609.94482421875)" r="6.888192201861367" fill="#ddeeff" opacity="0.36000000000000004" style="transform:matrix(1, 0, 0, 1, 0, 609.945);opacity:0.36;animation-play-state:paused" ></circle>
<circle cx="1216.4274046176224" cy="0" transform="matrix(1,0,0,1,0,622.1824340820312)" r="13.209355863205356" fill="#bbddff" opacity="0.7200000000000001" style="transform:matrix(1, 0, 0, 1, 0, 622.182);opacity:0.72;animation-play-state:paused" ></circle>
<circle cx="1246.8050498307177" cy="0" transform="matrix(1,0,0,1,0,326.7690734863281)" r="8.78664763013412" fill="#ddeeff" opacity="0.63" style="transform:matrix(1, 0, 0, 1, 0, 326.769);opacity:0.63;animation-play-state:paused" ></circle>
<circle cx="235.70334335941718" cy="0" transform="matrix(1,0,0,1,0,113.593017578125)" r="11.13286181044161" fill="#ddeeff" opacity="0.63" style="transform:matrix(1, 0, 0, 1, 0, 113.593);opacity:0.63;animation-play-state:paused" ></circle>
<circle cx="378.0401926716072" cy="0" transform="matrix(1,0,0,1,0,275.0772399902344)" r="4.029776696015534" fill="#ddeeff" opacity="0.36000000000000004" style="transform:matrix(1, 0, 0, 1, 0, 275.077);opacity:0.36;animation-play-state:paused" ></circle>
<circle cx="746.4661665235141" cy="0" transform="matrix(1,0,0,1,0,74.77752685546875)" r="7.4155292959568815" fill="#bbddff" opacity="0.36000000000000004" style="transform:matrix(1, 0, 0, 1, 0, 74.7775);opacity:0.36;animation-play-state:paused" ></circle>
<circle cx="395.16547678539104" cy="0" transform="matrix(1,0,0,1,0,429.2381591796875)" r="14.619081056245783" fill="#ddeeff" opacity="0.7200000000000001" style="transform:matrix(1, 0, 0, 1, 0, 429.238);opacity:0.72;animation-play-state:paused" ></circle>
<circle cx="1138.4367148678375" cy="0" transform="matrix(1,0,0,1,0,194.87997436523438)" r="15.365315422764295" fill="#ddeeff" opacity="0.7200000000000001" style="transform:matrix(1, 0, 0, 1, 0, 194.88);opacity:0.72;animation-play-state:paused" ></circle>
<circle cx="1279.0631405146812" cy="0" transform="matrix(1,0,0,1,0,613.2539672851562)" r="15.62026440519861" fill="#bbddff" opacity="0.7200000000000001" style="transform:matrix(1, 0, 0, 1, 0, 613.254);opacity:0.72;animation-play-state:paused" ></circle>
<circle cx="80.78541207498445" cy="0" transform="matrix(1,0,0,1,0,484.276611328125)" r="15.846112805044566" fill="#ddeeff" opacity="0.7200000000000001" style="transform:matrix(1, 0, 0, 1, 0, 484.277);opacity:0.72;animation-play-state:paused" ></circle>
<circle cx="129.9672285409164" cy="0" transform="matrix(1,0,0,1,0,532.9879760742188)" r="13.932470567950862" fill="#aabbcc" opacity="0.7200000000000001" style="transform:matrix(1, 0, 0, 1, 0, 532.988);opacity:0.72;animation-play-state:paused" ></circle>
<circle cx="1094.732655637024" cy="0" transform="matrix(1,0,0,1,0,149.42507934570312)" r="6.704207623997581" fill="#aabbcc" opacity="0.36000000000000004" style="transform:matrix(1, 0, 0, 1, 0, 149.425);opacity:0.36;animation-play-state:paused" ></circle>
<circle cx="118.57369123990443" cy="0" transform="matrix(1,0,0,1,0,385.4638366699219)" r="5.11372821727068" fill="#ddeeff" opacity="0.36000000000000004" style="transform:matrix(1, 0, 0, 1, 0, 385.464);opacity:0.36;animation-play-state:paused" ></circle>
<circle cx="716.8264050744087" cy="0" transform="matrix(1,0,0,1,0,377.9820251464844)" r="15.42473598909145" fill="#bbddff" opacity="0.7200000000000001" style="transform:matrix(1, 0, 0, 1, 0, 377.982);opacity:0.72;animation-play-state:paused" ></circle>
<circle cx="175.01437738433657" cy="0" transform="matrix(1,0,0,1,0,265.3066101074219)" r="4.917922197762438" fill="#ddeeff" opacity="0.36000000000000004" style="transform:matrix(1, 0, 0, 1, 0, 265.307);opacity:0.36;animation-play-state:paused" ></circle>
<circle cx="350.54501314677066" cy="0" transform="matrix(1,0,0,1,0,359.33331298828125)" r="9.856794566278221" fill="#bbddff" opacity="0.63" style="transform:matrix(1, 0, 0, 1, 0, 359.333);opacity:0.63;animation-play-state:paused" ></circle></g></svg>